<?xml version="1.0" encoding="iso-8859-1"?>
<!-- Uploaded to: SVG Repo, www.svgrepo.com, Generator: SVG Repo Mixer Tools -->
<!DOCTYPE svg PUBLIC "-//W3C//DTD SVG 1.1//EN" "http://www.w3.org/Graphics/SVG/1.1/DTD/svg11.dtd">
<svg fill="#000000" height="800px" width="800px" version="1.1" id="Capa_1" xmlns="http://www.w3.org/2000/svg" xmlns:xlink="http://www.w3.org/1999/xlink" 
	 viewBox="0 0 395 395" xml:space="preserve">
<g>
	<path d="M297.75,184.597c-3.845,24.049-24.678,42.426-49.81,42.426h-58.127l-15.729,32.796c4.852,5.931,6.148,14.373,2.621,21.726
		l-1.896,3.953h122.814c27.863,0,50.452-22.588,50.452-50.451C348.077,207.225,325.556,184.664,297.75,184.597z"/>
	<path d="M313.001,0H81.999C36.785,0,0,36.784,0,81.998v230.993C0,358.211,36.785,395,81.999,395h231.002
		C358.216,395,395,358.211,395,312.991V81.998C395,36.784,358.216,0,313.001,0z M380,295.329
		c-9.321,1.029-15.059,3.935-20.234,6.561c-5.602,2.842-10.025,5.088-19.827,5.088c-9.805,0-14.231-2.246-19.833-5.089
		c-6.42-3.258-13.697-6.95-27.616-6.95c-13.92,0-21.196,3.693-27.615,6.951c-5.6,2.843-10.023,5.088-19.822,5.088
		c-9.803,0-14.228-2.246-19.829-5.088c-6.42-3.258-13.696-6.951-27.615-6.951c-13.916,0-21.191,3.692-27.61,6.95
		c-1.367,0.693-2.663,1.351-3.985,1.949l-5.805,12.103c-1.634,3.408-4.159,6.19-7.186,8.178c12.084-0.467,18.796-3.865,24.76-6.893
		c5.601-2.842,10.024-5.088,19.825-5.088c9.804,0,14.229,2.246,19.831,5.089c6.419,3.258,13.695,6.95,27.613,6.95
		c13.914,0,21.189-3.692,27.607-6.95c5.602-2.843,10.026-5.089,19.831-5.089c9.805,0,14.23,2.246,19.833,5.089
		c6.42,3.258,13.697,6.95,27.616,6.95c13.916,0,21.191-3.692,27.61-6.95c3.963-2.011,7.345-3.719,12.451-4.549v0.312
		C380,349.94,349.945,380,313.001,380H81.999C45.056,380,15,349.94,15,312.991v-0.348c5.232,0.816,8.657,2.543,12.678,4.584
		c6.418,3.258,13.694,6.951,27.61,6.951c13.919,0,21.195-3.692,27.615-6.951c5.602-2.843,10.026-5.088,19.83-5.088
		c4.722,0,8.191,0.525,11.149,1.384c-1.106-1.549-2.008-3.258-2.657-5.103c-1.494-4.246-1.522-8.759-0.163-12.972
		c-2.497-0.318-5.242-0.508-8.329-0.508c-13.918,0-21.194,3.692-27.613,6.95c-5.602,2.843-10.027,5.089-19.831,5.089
		c-9.801,0-14.225-2.246-19.825-5.088c-5.218-2.648-11.003-5.584-20.462-6.59v-9.803h100.601l12.971-27.041
		c3.441-7.174,10.797-11.63,18.587-11.557l9.533-19.877h-8.035l10.638-52.375l8.079,5.096c2.069,1.305,4.457,1.989,6.881,1.989
		c0.537,0,1.076-0.034,1.613-0.102l12.907-1.627l-36.762,76.649c-5.858-2.807-12.882-0.335-15.692,5.523l-16.498,34.396
		c-2.811,5.859-0.338,12.888,5.522,15.7l11.405,5.468c5.861,2.813,12.891,0.341,15.701-5.519l16.498-34.398
		c2.809-5.857,0.34-12.881-5.517-15.693l40.294-84.012l4.537-0.572c7.068-0.891,12.075-7.343,11.184-14.411
		c-0.201-1.598-0.699-3.083-1.412-4.425c0.341-0.486,0.66-0.994,0.925-1.547l2.998-6.252c2.625-5.475,0.308-12.058-5.165-14.686
		c-5.472-2.621-12.06-0.306-14.683,5.166l-3.001,6.252c-0.802,1.675-1.141,3.453-1.068,5.19l-20.816,2.624l-29.268-18.462
		c-0.034-0.022-0.07-0.038-0.105-0.059c-3.155-2.105-6.759-3.651-10.707-4.453c-16.284-3.305-32.176,7.214-35.485,23.504
		l-14.428,71.034H15V81.998C15,45.055,45.056,15,81.999,15h231.002C349.945,15,380,45.055,380,81.998V295.329z"/>
	<circle cx="158.356" cy="101.324" r="33.824"/>
</g>
</svg>