<?xml version="1.0" encoding="utf-8"?><!-- Uploaded to: SVG Repo, www.svgrepo.com, Generator: SVG Repo Mixer Tools -->
<svg fill="#000000" width="800px" height="800px" viewBox="0 0 1024 1024" xmlns="http://www.w3.org/2000/svg"><path d="M962.26 331.227c0-35.404-28.433-64.041-63.437-64.041s-63.437 28.636-63.437 64.041c0 35.404 28.433 64.041 63.437 64.041s63.437-28.636 63.437-64.041zm40.96 0c0 57.961-46.705 105.001-104.397 105.001s-104.397-47.04-104.397-105.001c0-57.961 46.705-105.001 104.397-105.001s104.397 47.04 104.397 105.001z"/><path d="M791.244 283.667c0-49.716-124.664-99.348-280.494-99.348-155.822 0-280.484 49.633-280.484 99.348s124.662 99.348 280.484 99.348c155.831 0 280.494-49.633 280.494-99.348zm40.96 0c0 82.646-144.832 140.308-321.454 140.308-176.614 0-321.444-57.663-321.444-140.308s144.83-140.308 321.444-140.308c176.622 0 321.454 57.662 321.454 140.308z"/><path d="M792.404 283.129v84.705c0 156.652-127.623 283.679-285.102 283.679-152.954 0-276.91-123.372-276.91-275.517v-92.867h-40.96v92.867c0 174.81 142.338 316.477 317.87 316.477 180.058 0 326.062-145.322 326.062-324.639v-84.705h-40.96z"/><path d="M863.042 554.415c77.863 32.638 119.994 73.652 119.994 112.829 0 89.94-210.031 172.329-471.04 172.329-261.002 0-471.04-82.391-471.04-172.329 0-39.683 43.249-81.235 122.886-114.029 10.459-4.307 15.446-16.277 11.139-26.736s-16.277-15.446-26.736-11.139C54.933 553.766-.004 606.548-.004 667.244c0 123.031 230.093 213.289 512 213.289 281.914 0 512-90.256 512-213.289 0-60.011-53.696-112.282-145.119-150.605-10.431-4.373-22.432.539-26.805 10.97s.539 22.432 10.97 26.805z"/></svg>